<?xml version="1.0" standalone="no"?>
<!DOCTYPE svg PUBLIC "-//W3C//DTD SVG 20010904//EN"
 "http://www.w3.org/TR/2001/REC-SVG-20010904/DTD/svg10.dtd">
<svg version="1.0" xmlns="http://www.w3.org/2000/svg"
 width="256.000000pt" height="256.000000pt" viewBox="0 0 256.000000 256.000000"
 preserveAspectRatio="xMidYMid meet">

<g transform="translate(0.000000,256.000000) scale(0.100000,-0.100000)"
fill="#000000" stroke="none">
<path d="M1107 2270 c-206 -37 -404 -145 -553 -303 -116 -122 -203 -276 -245
-434 -32 -118 -37 -329 -11 -453 63 -304 248 -550 519 -692 224 -117 470 -146
715 -84 176 45 314 123 450 254 137 132 224 281 275 467 23 87 27 119 27 245
1 168 -15 256 -71 390 -121 289 -369 508 -668 590 -63 18 -114 23 -235 26 -85
1 -177 -1 -203 -6z m417 -39 c474 -125 785 -569 736 -1048 -25 -240 -117 -433
-286 -600 -213 -212 -476 -306 -786 -281 -325 25 -628 232 -781 533 -186 366
-124 809 158 1113 51 56 154 142 168 142 11 0 8 -22 -8 -76 -12 -42 -20 -52
-49 -62 -48 -18 -86 -50 -79 -67 7 -19 28 -19 58 1 30 19 30 14 8 -46 -21 -57
-30 -68 -67 -85 l-31 -13 28 -1 c15 -1 27 -4 27 -7 0 -6 -73 -148 -89 -173 -8
-12 -13 -11 -30 10 l-20 24 -1 -49 c0 -32 -6 -56 -17 -68 -24 -27 -36 -22 -29
12 8 42 -12 38 -31 -7 -21 -51 -13 -153 16 -220 13 -29 26 -53 30 -53 3 0 21
27 39 60 18 33 34 60 35 60 1 0 24 -7 51 -15 27 -8 68 -15 92 -15 36 0 47 5
73 35 56 64 117 201 146 329 19 82 13 117 -26 150 -27 23 -28 26 -14 53 8 15
15 35 15 43 0 31 -31 60 -71 66 l-39 7 0 53 c0 30 -1 57 -2 62 -6 15 203 110
289 130 129 31 126 31 273 27 96 -2 158 -9 214 -24z m-736 -327 c2 -15 -9 -31
-38 -54 -22 -18 -43 -31 -45 -28 -8 8 21 90 36 99 22 14 44 6 47 -17z m6 -170
c3 -9 6 -35 6 -59 0 -34 -10 -57 -48 -116 -64 -98 -72 -104 -117 -89 -20 7
-35 17 -32 24 2 6 19 64 37 128 l34 117 40 4 c23 2 48 4 57 5 9 1 20 -5 23
-14z"/>
<path d="M1261 2183 c-9 -19 -26 -197 -36 -378 -8 -164 -16 -213 -35 -238 -15
-18 -20 -19 -34 -8 -24 20 -20 64 13 136 18 40 25 65 18 65 -14 -1 -82 -100
-126 -183 -17 -31 -33 -58 -37 -58 -8 -1 -44 53 -44 67 0 5 30 35 66 65 79 65
88 79 72 114 -13 29 -43 39 -110 36 -36 -1 -52 -33 -72 -140 -28 -144 -21
-188 34 -216 40 -21 57 -19 86 10 l26 26 20 -26 c24 -31 45 -32 75 -4 20 20
23 20 29 5 8 -20 32 -21 55 0 9 8 38 71 65 140 26 68 52 124 57 124 7 0 4 -83
-9 -186 -4 -36 -2 -42 21 -52 23 -11 29 -8 64 23 l39 35 12 -29 c17 -42 44
-64 69 -56 11 3 33 32 50 67 31 61 31 61 31 25 0 -47 15 -86 48 -119 36 -38
58 -36 81 10 28 54 53 159 46 191 -3 17 0 34 10 46 16 19 16 18 10 -15 -3 -19
-8 -76 -12 -126 -6 -90 -6 -90 22 -112 35 -28 47 -20 39 27 -5 34 22 239 34
251 2 3 2 -56 -1 -130 -4 -107 -2 -141 10 -163 11 -23 19 -28 36 -23 12 3 25
6 28 6 14 0 19 34 7 41 -9 6 -13 36 -13 101 0 104 9 148 29 148 11 0 15 -29
18 -142 3 -130 5 -147 27 -185 15 -26 32 -43 43 -43 23 0 57 66 65 127 l6 48
-25 -22 c-13 -13 -29 -23 -35 -23 -10 0 -23 131 -23 232 0 35 -6 54 -20 68
-25 25 -35 25 -59 1 -18 -18 -19 -18 -30 5 -8 19 -18 24 -46 24 -19 0 -35 5
-35 10 0 6 -9 10 -19 10 -12 0 -26 -14 -38 -37 -11 -20 -24 -38 -29 -40 -5 -2
-16 16 -24 39 -14 41 -17 43 -60 46 -35 2 -50 -2 -68 -18 -21 -20 -22 -20 -22
-1 0 23 -47 63 -68 59 -21 -4 -91 -144 -101 -201 -7 -42 -37 -94 -48 -83 -2 2
3 45 12 97 19 121 19 173 -1 189 -13 11 -19 10 -37 -8 l-21 -21 -16 24 c-25
39 -40 17 -65 -101 -28 -127 -43 -174 -57 -174 -5 0 -7 8 -4 18 5 15 77 380
89 445 4 26 -12 122 -28 160 -4 9 -15 17 -26 17 -10 0 -22 -8 -28 -17z m359
-425 c0 -34 -11 -68 -21 -68 -10 0 -12 50 -3 74 9 24 24 19 24 -6z m-585 -52
c-24 -19 -31 -21 -33 -10 -2 8 4 27 13 41 16 23 18 24 33 9 16 -15 15 -18 -13
-40z m685 46 c0 -4 -13 -44 -30 -88 -29 -79 -29 -79 -24 -29 6 54 32 125 46
125 4 0 8 -4 8 -8z m60 -42 c0 -11 -4 -20 -10 -20 -5 0 -10 9 -10 20 0 11 5
20 10 20 6 0 10 -9 10 -20z m-172 -66 c2 -1 1 -17 -3 -34 -10 -46 -39 -37 -43
13 -3 36 -2 38 20 32 13 -4 25 -9 26 -11z m164 -35 c16 -9 19 -17 14 -41 -6
-33 -23 -58 -37 -58 -12 0 -30 75 -23 94 7 19 18 20 46 5z"/>
<path d="M1294 1383 c-14 -32 -30 -77 -37 -100 -9 -35 -17 -45 -44 -54 -20 -6
-33 -17 -33 -27 0 -9 -3 -28 -7 -41 -6 -22 -4 -23 20 -17 15 3 27 4 27 2 0 -3
-12 -38 -26 -78 -32 -89 -77 -180 -98 -197 -15 -13 -56 -7 -56 8 0 14 62 145
82 174 l19 27 -43 0 c-24 0 -52 -7 -62 -15 -11 -8 -33 -15 -49 -15 -24 0 -28
4 -25 23 3 21 0 22 -61 19 -63 -3 -63 -3 -57 21 3 13 10 55 15 93 8 56 7 72
-4 83 -12 12 -30 3 -129 -62 -63 -42 -125 -90 -137 -106 -12 -17 -35 -33 -51
-36 -29 -7 -36 -19 -18 -30 6 -4 0 -20 -15 -39 -20 -26 -25 -44 -25 -87 1
-109 45 -233 87 -244 14 -3 27 -4 30 -2 2 3 -5 41 -16 85 -28 108 -27 120 16
186 29 43 46 59 73 66 72 20 79 14 60 -50 -22 -77 77 -408 139 -464 11 -10 31
-16 47 -14 37 4 61 47 72 126 l9 61 -41 3 c-46 3 -69 30 -108 126 -28 69 -33
217 -8 233 22 13 45 6 42 -13 -3 -20 57 -42 99 -36 16 3 29 3 29 1 0 -2 -11
-21 -25 -43 -31 -50 -31 -81 0 -147 19 -43 29 -53 49 -53 29 0 81 41 107 84
l18 30 -2 -94 c-2 -79 3 -112 27 -195 27 -93 60 -175 71 -175 9 0 42 76 64
145 38 118 41 125 67 125 19 0 32 18 81 119 55 111 60 117 70 94 10 -22 6 -36
-38 -117 -56 -106 -65 -170 -29 -206 29 -29 43 -25 85 21 75 83 119 214 96
290 -11 36 -9 43 33 126 25 48 45 86 45 83 1 -3 -12 -48 -29 -99 -25 -82 -28
-101 -19 -140 17 -75 49 -141 70 -141 23 0 115 105 150 170 l27 49 12 -29 c11
-26 9 -34 -23 -82 -91 -138 -108 -200 -54 -206 34 -4 104 35 140 77 35 43 56
164 34 202 -14 25 -13 31 14 90 28 62 37 131 21 156 -5 8 -15 -17 -27 -63 -35
-143 -69 -139 -59 7 7 89 0 144 -15 134 -5 -3 -25 -56 -45 -119 -34 -108 -39
-117 -101 -182 -62 -66 -65 -68 -80 -50 -25 32 -18 84 31 226 l45 135 59 38
c32 21 81 48 109 59 28 12 51 26 51 30 0 16 -85 7 -157 -16 -20 -6 -22 -3 -25
35 -4 62 -24 60 -37 -4 -11 -48 -15 -54 -47 -66 -25 -9 -40 -23 -50 -47 -20
-48 -18 -57 11 -51 14 2 24 1 23 -3 -10 -25 -144 -230 -150 -230 -5 0 -8 33
-8 74 0 53 -4 77 -15 86 -12 10 -16 8 -24 -11 -75 -197 -141 -335 -156 -331
-16 4 -8 141 13 215 11 37 15 67 10 67 -5 0 -21 -6 -36 -14 -23 -13 -33 -34
-71 -156 -42 -136 -43 -143 -28 -174 14 -30 14 -40 0 -105 -9 -39 -20 -71 -24
-71 -8 0 -30 70 -49 153 -18 81 20 339 63 427 27 55 82 94 198 140 46 18 89
37 94 43 18 17 -122 -3 -161 -24 -68 -34 -74 -26 -74 87 0 43 -4 74 -10 74 -6
0 -22 -26 -36 -57z m-548 -258 c-4 -16 -13 -25 -26 -25 -31 0 -32 17 -4 39 32
25 39 21 30 -14z m838 -342 c-9 -38 -19 -55 -43 -77 -29 -27 -27 -5 6 55 29
54 47 64 37 22z"/>
<path d="M1412 1184 c-31 -22 -26 -58 9 -62 19 -2 28 3 37 23 25 54 2 73 -46
39z"/>
</g>
</svg>
